<svg width="104" height="98" viewBox="0 0 104 98" fill="none" xmlns="http://www.w3.org/2000/svg">
<rect width="104" height="98" rx="12" fill="black"/>
<path d="M80.6705 37.7727C80.6705 35.5852 79.9479 33.928 78.5028 32.8011C77.0578 31.661 75.1023 31.0909 72.6364 31.0909C70.8333 31.0909 69.2093 31.3826 67.7642 31.9659C66.3191 32.5492 65.1392 33.3513 64.2244 34.3722C63.3097 35.393 62.7462 36.553 62.5341 37.8523C62.3617 38.9394 62.4744 39.8741 62.8722 40.6562C63.2699 41.4252 63.8333 42.0682 64.5625 42.5852C65.3049 43.089 66.1004 43.5066 66.9489 43.8381C67.7973 44.1562 68.5795 44.4148 69.2955 44.6136L73.2727 45.7273C74.267 46.0057 75.3741 46.3902 76.5938 46.8807C77.8134 47.3712 78.9536 48.0407 80.0142 48.8892C81.0748 49.7244 81.8835 50.7983 82.4403 52.1108C83.0104 53.4233 83.1364 55.0341 82.8182 56.9432C82.447 59.1439 81.5388 61.1326 80.0938 62.9091C78.6619 64.6856 76.7661 66.0975 74.4062 67.1449C72.0597 68.1922 69.322 68.7159 66.1932 68.7159C63.2765 68.7159 60.8239 68.2453 58.8352 67.304C56.8598 66.3627 55.4015 65.0502 54.4602 63.3665C53.5322 61.6828 53.1742 59.7273 53.3864 57.5H58.4773C58.3447 59.0379 58.6496 60.3106 59.392 61.3182C60.1345 62.3125 61.1686 63.0549 62.4943 63.5455C63.8201 64.0227 65.2917 64.2614 66.9091 64.2614C68.7917 64.2614 70.5284 63.9564 72.1193 63.3466C73.7235 62.7235 75.0492 61.8617 76.0966 60.7614C77.1572 59.6477 77.8068 58.3485 78.0455 56.8636C78.2841 55.5114 78.0985 54.411 77.4886 53.5625C76.8788 52.714 75.9972 52.0246 74.8438 51.4943C73.6903 50.964 72.4242 50.5 71.0455 50.1023L66.2727 48.6705C63.25 47.7557 60.9498 46.4498 59.3722 44.7528C57.8078 43.0559 57.2443 40.8352 57.6818 38.0909C58.0795 35.8106 59.0407 33.822 60.5653 32.125C62.09 30.4148 63.9792 29.089 66.233 28.1477C68.4867 27.1932 70.9129 26.7159 73.5114 26.7159C76.1364 26.7159 78.3835 27.1932 80.2528 28.1477C82.1222 29.089 83.5142 30.3949 84.429 32.0653C85.3438 33.7225 85.6818 35.625 85.4432 37.7727H80.6705Z" fill="white"/>
<path d="M56.35 78.1C56.0367 78.1 55.73 78.05 55.43 77.95C55.1367 77.8433 54.8867 77.6567 54.68 77.39C54.48 77.1233 54.3667 76.75 54.34 76.27L54.92 76.09C54.9133 76.5367 54.9733 76.8867 55.1 77.14C55.2333 77.3867 55.4133 77.56 55.64 77.66C55.8667 77.7533 56.1133 77.8 56.38 77.8C56.9533 77.8 57.3867 77.6667 57.68 77.4C57.98 77.1267 58.13 76.7667 58.13 76.32C58.13 75.9867 58.04 75.7167 57.86 75.51C57.68 75.2967 57.38 75.11 56.96 74.95L56.33 74.71C55.91 74.55 55.5867 74.3333 55.36 74.06C55.14 73.78 55.03 73.43 55.03 73.01C55.03 72.6767 55.11 72.3667 55.27 72.08C55.43 71.7867 55.6733 71.55 56 71.37C56.3267 71.19 56.74 71.1 57.24 71.1C57.7667 71.1 58.1833 71.2 58.49 71.4C58.8033 71.6 59.01 71.86 59.11 72.18C59.21 72.4933 59.1967 72.8233 59.07 73.17L58.41 73.33C58.59 72.7033 58.5833 72.2233 58.39 71.89C58.1967 71.5567 57.81 71.39 57.23 71.39C56.7567 71.39 56.3767 71.5133 56.09 71.76C55.8033 72 55.66 72.3567 55.66 72.83C55.66 73.1367 55.74 73.3933 55.9 73.6C56.0667 73.8 56.36 73.98 56.78 74.14L57.41 74.38C57.85 74.5467 58.1833 74.7633 58.41 75.03C58.6433 75.29 58.76 75.6267 58.76 76.04C58.76 76.3733 58.6767 76.7 58.51 77.02C58.3433 77.3333 58.08 77.5933 57.72 77.8C57.3667 78 56.91 78.1 56.35 78.1ZM60.9304 77.75L60.8904 78H58.9704L59.0104 77.75L59.5704 77.7C59.6437 77.6933 59.7004 77.6833 59.7404 77.67C59.7804 77.65 59.8204 77.6067 59.8604 77.54C59.9004 77.4733 59.9571 77.3633 60.0304 77.21L63.0404 71.2H63.5104L64.4204 77.21C64.4537 77.4367 64.4837 77.5733 64.5104 77.62C64.5371 77.66 64.5971 77.6867 64.6904 77.7L65.2304 77.75L65.1904 78H63.0104L63.0504 77.75L63.6104 77.7C63.7237 77.6867 63.7871 77.66 63.8004 77.62C63.8204 77.5733 63.8137 77.4367 63.7804 77.21L63.5804 75.9H61.0504L60.4004 77.21C60.2871 77.4367 60.2304 77.5733 60.2304 77.62C60.2304 77.66 60.2837 77.6867 60.3904 77.7L60.9304 77.75ZM61.2004 75.6H63.5404L63.0004 72L61.2004 75.6ZM66.8611 71.45L66.9111 71.2H68.4111L70.7411 76.91L71.6111 71.99C71.6511 71.7567 71.6644 71.62 71.6511 71.58C71.6378 71.5333 71.5811 71.5067 71.4811 71.5L70.9311 71.45L70.9811 71.2H72.8711L72.8211 71.45L72.2711 71.5C72.1644 71.5067 72.0944 71.5333 72.0611 71.58C72.0344 71.62 72.0011 71.7567 71.9611 71.99L70.9011 78H70.5111L67.9411 71.71L66.9711 77.21C66.9311 77.4367 66.9178 77.5733 66.9311 77.62C66.9444 77.66 67.0011 77.6867 67.1011 77.7L67.6411 77.75L67.6011 78H65.7111L65.7511 77.75L66.3111 77.7C66.4244 77.6867 66.4944 77.66 66.5211 77.62C66.5478 77.5733 66.5811 77.4367 66.6211 77.21L67.5411 71.99C67.5811 71.7567 67.5944 71.62 67.5811 71.58C67.5678 71.5333 67.5111 71.5067 67.4111 71.5L66.8611 71.45ZM74.9703 71.45L75.0203 71.2H77.2103L77.1603 71.45L76.6103 71.5C76.5036 71.5067 76.4336 71.5333 76.4003 71.58C76.3736 71.62 76.3403 71.7567 76.3003 71.99L75.6003 75.98C75.5403 76.3333 75.4303 76.6733 75.2703 77C75.1103 77.3267 74.8903 77.5933 74.6103 77.8C74.337 78 73.987 78.1 73.5603 78.1C73.3336 78.1 73.117 78.06 72.9103 77.98C72.7036 77.8933 72.5403 77.75 72.4203 77.55C72.307 77.3433 72.2636 77.0633 72.2903 76.71L72.8703 76.53C72.8236 76.8833 72.8336 77.1533 72.9003 77.34C72.967 77.52 73.0603 77.6433 73.1803 77.71C73.307 77.77 73.4336 77.8 73.5603 77.8C73.7803 77.8 73.977 77.7467 74.1503 77.64C74.3303 77.5333 74.487 77.3467 74.6203 77.08C74.7603 76.8133 74.8703 76.4467 74.9503 75.98L75.6503 71.99C75.6903 71.7567 75.7036 71.62 75.6903 71.58C75.677 71.5333 75.6203 71.5067 75.5203 71.5L74.9703 71.45ZM78.0818 71.45L78.1318 71.2H80.3218L80.2718 71.45L79.7218 71.5C79.6485 71.5067 79.5951 71.52 79.5618 71.54C79.5285 71.5533 79.5018 71.5933 79.4818 71.66C79.4618 71.72 79.4385 71.83 79.4118 71.99L78.4918 77.21C78.4518 77.4433 78.4385 77.58 78.4518 77.62C78.4651 77.66 78.5218 77.6867 78.6218 77.7L79.1618 77.75L79.1218 78H76.9318L76.9718 77.75L77.5318 77.7C77.6051 77.6933 77.6585 77.6833 77.6918 77.67C77.7251 77.65 77.7518 77.6067 77.7718 77.54C77.7918 77.4733 77.8151 77.3633 77.8418 77.21L78.7618 71.99C78.8018 71.7567 78.8151 71.62 78.8018 71.58C78.7885 71.5333 78.7318 71.5067 78.6318 71.5L78.0818 71.45ZM81.3142 71.45L81.3642 71.2H83.8842C84.4509 71.2 84.9109 71.3367 85.2642 71.61C85.6176 71.8833 85.8609 72.2533 85.9942 72.72C86.1276 73.18 86.1409 73.7 86.0342 74.28L85.9042 75.01C85.7976 75.5967 85.6142 76.1167 85.3542 76.57C85.0942 77.0167 84.7642 77.3667 84.3642 77.62C83.9709 77.8733 83.5109 78 82.9842 78H80.1642L80.2042 77.75L80.7642 77.7C80.8776 77.6867 80.9476 77.66 80.9742 77.62C81.0009 77.5733 81.0342 77.4367 81.0742 77.21L81.9942 71.99C82.0342 71.7567 82.0476 71.62 82.0342 71.58C82.0209 71.5333 81.9642 71.5067 81.8642 71.5L81.3142 71.45ZM83.8842 71.5H82.7342L81.6342 77.7H82.9742C83.5276 77.7 83.9842 77.5167 84.3442 77.15C84.7109 76.7767 84.9576 76.23 85.0842 75.51L85.3942 73.78C85.5209 73.0667 85.4576 72.51 85.2042 72.11C84.9509 71.7033 84.5109 71.5 83.8842 71.5Z" fill="white"/>
<path d="M16.017 27.2727H25.0455L37.1364 56.7841H37.6136L49.7045 27.2727H58.733V68H51.6534V40.0199H51.2756L40.0199 67.8807H34.7301L23.4744 39.9602H23.0966V68H16.017V27.2727Z" fill="white"/>
<path d="M16.037 73.24L16.884 76.908L18.998 73.24H20.146L20.111 73.415L19.726 73.45C19.6513 73.4547 19.6023 73.4733 19.579 73.506C19.5603 73.534 19.537 73.6297 19.509 73.793L18.865 77.447C18.837 77.6057 18.8277 77.7013 18.837 77.734C18.8463 77.762 18.886 77.7807 18.956 77.79L19.334 77.825L19.306 78H17.773L17.801 77.825L18.193 77.79C18.2677 77.7807 18.3143 77.762 18.333 77.734C18.3563 77.7013 18.382 77.6057 18.41 77.447L19.103 73.534L16.835 77.44H16.541L15.624 73.471L14.945 77.447C14.917 77.6057 14.9077 77.7013 14.917 77.734C14.9263 77.762 14.966 77.7807 15.036 77.79L15.414 77.825L15.386 78H14.063L14.091 77.825L14.483 77.79C14.5483 77.7807 14.5927 77.762 14.616 77.734C14.644 77.7013 14.672 77.6057 14.7 77.447L15.344 73.793C15.372 73.6297 15.3813 73.534 15.372 73.506C15.3627 73.4733 15.323 73.4547 15.253 73.45L14.868 73.415L14.903 73.24H16.037ZM23.2368 78.035C23.0641 78.035 22.9311 77.9697 22.8378 77.839C22.7491 77.7083 22.7188 77.4937 22.7468 77.195C22.5274 77.5123 22.3034 77.7387 22.0748 77.874C21.8508 78.0047 21.6244 78.07 21.3958 78.07C21.0644 78.07 20.8311 77.9557 20.6958 77.727C20.5604 77.4937 20.5254 77.1857 20.5908 76.803L20.8848 75.144C20.9128 74.9807 20.9221 74.885 20.9128 74.857C20.9034 74.8243 20.8638 74.8057 20.7938 74.801L20.4088 74.766L20.4438 74.591H21.4028L21.0178 76.796C20.9524 77.1693 20.9618 77.44 21.0458 77.608C21.1298 77.776 21.2651 77.86 21.4518 77.86C21.6431 77.86 21.8531 77.783 22.0818 77.629C22.3151 77.4703 22.5624 77.174 22.8238 76.74L23.1948 74.591H23.6148L23.2018 76.95C23.1598 77.188 23.1364 77.37 23.1318 77.496C23.1318 77.622 23.1458 77.7107 23.1738 77.762C23.2018 77.8087 23.2414 77.832 23.2928 77.832C23.3628 77.832 23.4398 77.7877 23.5238 77.699C23.6124 77.6103 23.6894 77.4657 23.7548 77.265L23.9858 77.419C23.8831 77.629 23.7664 77.7853 23.6358 77.888C23.5051 77.986 23.3721 78.035 23.2368 78.035ZM28.2317 77.419C28.129 77.629 28.01 77.7853 27.8747 77.888C27.744 77.986 27.604 78.035 27.4547 78.035C27.2727 78.035 27.1374 77.972 27.0487 77.846C26.96 77.72 26.946 77.4983 27.0067 77.181L27.2867 75.795C27.366 75.4217 27.359 75.151 27.2657 74.983C27.1724 74.815 27.023 74.731 26.8177 74.731C26.6217 74.731 26.4047 74.808 26.1667 74.962C25.9287 75.116 25.679 75.4077 25.4177 75.837L25.0397 78H24.6197L25.4317 73.373C25.4597 73.2097 25.469 73.114 25.4597 73.086C25.4504 73.0533 25.4107 73.0347 25.3407 73.03L24.9557 72.995L24.9907 72.82H25.9497L25.5017 75.368C25.721 75.0553 25.9474 74.836 26.1807 74.71C26.414 74.584 26.645 74.521 26.8737 74.521C27.219 74.521 27.464 74.6377 27.6087 74.871C27.758 75.1043 27.793 75.41 27.7137 75.788L27.4057 77.251C27.3684 77.4283 27.352 77.5707 27.3567 77.678C27.3614 77.7807 27.415 77.832 27.5177 77.832C27.597 77.832 27.681 77.7877 27.7697 77.699C27.8584 77.6103 27.9354 77.4657 28.0007 77.265L28.2317 77.419ZM31.5317 78.035C31.373 78.035 31.2493 77.9813 31.1607 77.874C31.072 77.7667 31.03 77.5987 31.0347 77.37C30.8667 77.622 30.6893 77.8017 30.5027 77.909C30.316 78.0163 30.1247 78.07 29.9287 78.07C29.6627 78.07 29.4433 77.986 29.2707 77.818C29.098 77.65 28.9813 77.426 28.9207 77.146C28.86 76.8613 28.86 76.5487 28.9207 76.208L28.9487 76.054C29.0047 75.7413 29.1097 75.4707 29.2637 75.242C29.4223 75.0133 29.6113 74.836 29.8307 74.71C30.05 74.584 30.2857 74.521 30.5377 74.521C30.743 74.521 30.9203 74.563 31.0697 74.647C31.219 74.7263 31.3427 74.8383 31.4407 74.983C31.4733 74.9177 31.506 74.8523 31.5387 74.787C31.5713 74.717 31.604 74.6517 31.6367 74.591H31.9167L31.4967 76.95C31.4547 77.188 31.4313 77.37 31.4267 77.496C31.4267 77.622 31.4407 77.7107 31.4687 77.762C31.4967 77.8087 31.5363 77.832 31.5877 77.832C31.6577 77.832 31.7347 77.7877 31.8187 77.699C31.9073 77.6103 31.9843 77.4657 32.0497 77.265L32.2807 77.419C32.178 77.629 32.0613 77.7853 31.9307 77.888C31.8 77.986 31.667 78.035 31.5317 78.035ZM29.3547 76.418C29.28 76.8567 29.301 77.2067 29.4177 77.468C29.539 77.7293 29.721 77.86 29.9637 77.86C30.071 77.86 30.1853 77.8343 30.3067 77.783C30.428 77.7317 30.554 77.6383 30.6847 77.503C30.8153 77.363 30.9483 77.1647 31.0837 76.908L31.3707 75.305C31.282 75.109 31.1723 74.9643 31.0417 74.871C30.911 74.7777 30.7453 74.731 30.5447 74.731C30.2413 74.731 29.994 74.843 29.8027 75.067C29.616 75.291 29.49 75.6013 29.4247 75.998L29.3547 76.418ZM38.7005 77.419C38.5979 77.629 38.4789 77.7853 38.3435 77.888C38.2129 77.986 38.0729 78.035 37.9235 78.035C37.7415 78.035 37.6062 77.972 37.5175 77.846C37.4289 77.7153 37.4149 77.4937 37.4755 77.181L37.7555 75.795C37.8349 75.4217 37.8302 75.151 37.7415 74.983C37.6529 74.815 37.5129 74.731 37.3215 74.731C37.1349 74.731 36.9295 74.8057 36.7055 74.955C36.4815 75.1043 36.2412 75.3867 35.9845 75.802L35.5925 78H35.1725L35.5575 75.795C35.6229 75.4217 35.6135 75.151 35.5295 74.983C35.4502 74.815 35.3149 74.731 35.1235 74.731C34.9322 74.731 34.7222 74.808 34.4935 74.962C34.2649 75.116 34.0222 75.4053 33.7655 75.83L33.3805 78H32.9605L33.4645 75.144C33.4925 74.9807 33.5019 74.885 33.4925 74.857C33.4832 74.8243 33.4435 74.8057 33.3735 74.801L32.9885 74.766L33.0235 74.591H33.9825L33.8495 75.361C34.0689 75.0577 34.2905 74.843 34.5145 74.717C34.7385 74.5863 34.9602 74.521 35.1795 74.521C35.4549 74.521 35.6625 74.6003 35.8025 74.759C35.9425 74.9177 36.0149 75.1323 36.0195 75.403C36.2389 75.081 36.4629 74.8547 36.6915 74.724C36.9249 74.5887 37.1535 74.521 37.3775 74.521C37.7089 74.521 37.9445 74.6377 38.0845 74.871C38.2292 75.1043 38.2619 75.41 38.1825 75.788L37.8745 77.251C37.8372 77.4283 37.8209 77.5707 37.8255 77.678C37.8302 77.7807 37.8839 77.832 37.9865 77.832C38.0659 77.832 38.1499 77.7877 38.2385 77.699C38.3272 77.6103 38.4042 77.4657 38.4695 77.265L38.7005 77.419ZM45.1126 77.419C45.01 77.629 44.891 77.7853 44.7556 77.888C44.625 77.986 44.485 78.035 44.3356 78.035C44.1536 78.035 44.0183 77.972 43.9296 77.846C43.841 77.7153 43.827 77.4937 43.8876 77.181L44.1676 75.795C44.247 75.4217 44.2423 75.151 44.1536 74.983C44.065 74.815 43.925 74.731 43.7336 74.731C43.547 74.731 43.3416 74.8057 43.1176 74.955C42.8936 75.1043 42.6533 75.3867 42.3966 75.802L42.0046 78H41.5846L41.9696 75.795C42.035 75.4217 42.0256 75.151 41.9416 74.983C41.8623 74.815 41.727 74.731 41.5356 74.731C41.3443 74.731 41.1343 74.808 40.9056 74.962C40.677 75.116 40.4343 75.4053 40.1776 75.83L39.7926 78H39.3726L39.8766 75.144C39.9046 74.9807 39.914 74.885 39.9046 74.857C39.8953 74.8243 39.8556 74.8057 39.7856 74.801L39.4006 74.766L39.4356 74.591H40.3946L40.2616 75.361C40.481 75.0577 40.7026 74.843 40.9266 74.717C41.1506 74.5863 41.3723 74.521 41.5916 74.521C41.867 74.521 42.0746 74.6003 42.2146 74.759C42.3546 74.9177 42.427 75.1323 42.4316 75.403C42.651 75.081 42.875 74.8547 43.1036 74.724C43.337 74.5887 43.5656 74.521 43.7896 74.521C44.121 74.521 44.3566 74.6377 44.4966 74.871C44.6413 75.1043 44.674 75.41 44.5946 75.788L44.2866 77.251C44.2493 77.4283 44.233 77.5707 44.2376 77.678C44.2423 77.7807 44.296 77.832 44.3986 77.832C44.478 77.832 44.562 77.7877 44.6506 77.699C44.7393 77.6103 44.8163 77.4657 44.8816 77.265L45.1126 77.419ZM48.3258 77.314C48.1624 77.5987 47.9571 77.797 47.7098 77.909C47.4624 78.0163 47.2221 78.07 46.9888 78.07C46.6761 78.07 46.4171 77.9953 46.2118 77.846C46.0111 77.692 45.8711 77.4773 45.7918 77.202C45.7171 76.9267 45.7124 76.6093 45.7778 76.25L45.8058 76.096C45.8618 75.7833 45.9668 75.5103 46.1208 75.277C46.2748 75.039 46.4684 74.8547 46.7018 74.724C46.9398 74.5887 47.2081 74.521 47.5068 74.521C47.7401 74.521 47.9384 74.5607 48.1018 74.64C48.2651 74.7193 48.3888 74.8243 48.4728 74.955C48.5568 75.081 48.5988 75.2163 48.5988 75.361C48.5988 75.5897 48.5148 75.7857 48.3468 75.949C48.1788 76.1123 47.9454 76.2407 47.6468 76.334C47.3528 76.4273 47.0144 76.488 46.6318 76.516L46.1978 76.544C46.1418 76.9873 46.1838 77.3187 46.3238 77.538C46.4638 77.7527 46.6831 77.86 46.9818 77.86C47.1031 77.86 47.2314 77.839 47.3668 77.797C47.5068 77.755 47.6351 77.685 47.7518 77.587C47.8731 77.4843 47.9641 77.342 48.0248 77.16L48.3258 77.314ZM46.2888 76.005L46.2328 76.341L46.6248 76.313C47.0401 76.285 47.3598 76.222 47.5838 76.124C47.8078 76.0213 47.9618 75.9 48.0458 75.76C48.1344 75.6153 48.1788 75.473 48.1788 75.333C48.1788 75.1417 48.1158 74.9947 47.9898 74.892C47.8684 74.7847 47.7028 74.731 47.4928 74.731C47.2221 74.731 46.9724 74.8313 46.7438 75.032C46.5151 75.2327 46.3634 75.557 46.2888 76.005ZM51.9788 78.035C51.8201 78.035 51.6964 77.9813 51.6078 77.874C51.5191 77.7667 51.4771 77.5963 51.4818 77.363C51.3091 77.6197 51.1271 77.8017 50.9358 77.909C50.7491 78.0163 50.5554 78.07 50.3548 78.07C50.0841 78.07 49.8601 77.986 49.6828 77.818C49.5101 77.65 49.3934 77.426 49.3328 77.146C49.2721 76.8613 49.2721 76.5487 49.3328 76.208L49.3608 76.054C49.4168 75.7413 49.5241 75.4707 49.6828 75.242C49.8414 75.0133 50.0304 74.836 50.2498 74.71C50.4738 74.584 50.7118 74.521 50.9638 74.521C51.1691 74.521 51.3464 74.5607 51.4958 74.64C51.6451 74.7193 51.7711 74.8313 51.8738 74.976L52.1538 73.373C52.1818 73.2097 52.1911 73.114 52.1818 73.086C52.1724 73.0533 52.1328 73.0347 52.0628 73.03L51.6848 72.995L51.7128 72.82H52.6718L51.9438 76.95C51.9018 77.188 51.8784 77.37 51.8738 77.496C51.8738 77.622 51.8878 77.7107 51.9158 77.762C51.9438 77.8087 51.9834 77.832 52.0348 77.832C52.1048 77.832 52.1818 77.7877 52.2658 77.699C52.3544 77.6103 52.4314 77.4657 52.4968 77.265L52.7278 77.419C52.6251 77.629 52.5084 77.7853 52.3778 77.888C52.2471 77.986 52.1141 78.035 51.9788 78.035ZM49.7668 76.418C49.6921 76.8567 49.7131 77.2067 49.8298 77.468C49.9511 77.7293 50.1378 77.86 50.3898 77.86C50.5018 77.86 50.6184 77.8343 50.7398 77.783C50.8658 77.727 50.9941 77.629 51.1248 77.489C51.2601 77.349 51.3978 77.1507 51.5378 76.894L51.8108 75.319C51.7221 75.1183 51.6101 74.9713 51.4748 74.878C51.3441 74.78 51.1761 74.731 50.9708 74.731C50.6628 74.731 50.4131 74.843 50.2218 75.067C50.0304 75.291 49.9021 75.6013 49.8368 75.998L49.7668 76.418Z" fill="white"/>
</svg>
